<?xml version="1.0" encoding="UTF-8"?>
<svg xmlns="http://www.w3.org/2000/svg" width="719" height="97">
   <defs>
      <style type="text/css">
    @namespace "http://www.w3.org/2000/svg";
    .line                 {fill: none; stroke: #262626; stroke-width: 1;}
    .bold-line            {stroke: #0A0A0A; shape-rendering: crispEdges; stroke-width: 2;}
    .thin-line            {stroke: #0F0F0F; shape-rendering: crispEdges}
    .filled               {fill: #262626; stroke: none;}
    text.terminal         {font-family: Verdana, Sans-serif;
                            font-size: 12px;
                            fill: #0A0A0A;
                            font-weight: bold;
                          }
    text.nonterminal      {font-family: Verdana, Sans-serif;
                            font-size: 12px;
                            fill: #0D0D0D;
                            font-weight: normal;
                          }
    text.regexp           {font-family: Verdana, Sans-serif;
                            font-size: 12px;
                            fill: #0F0F0F;
                            font-weight: normal;
                          }
    rect, circle, polygon {fill: #262626; stroke: #262626;}
    rect.terminal         {fill: #FFFFFF; stroke: #262626; stroke-width: 1;}
    rect.nonterminal      {fill: #FFFFFF; stroke: #262626; stroke-width: 1;}
    rect.compound         {fill: rgb(255, 255, 132);}
    rect.text             {fill: none; stroke: none;}
    polygon.regexp        {fill: #FFFFFF; stroke: #262626; stroke-width: 1;}
  </style>
   </defs>
   <polygon points="9 61 1 57 1 65"/>
   <polygon points="17 61 9 57 9 65"/>
   <a xmlns:xlink="http://www.w3.org/1999/xlink"
      xlink:href="#TAB"
      xlink:title="TAB">
      <rect x="31" y="47" width="42" height="32"/>
      <rect x="29" y="45" width="42" height="32" class="nonterminal"/>
      <text class="nonterminal" x="39" y="65">TAB</text>
   </a>
   <rect x="93" y="47" width="50" height="32" rx="10"/>
   <rect x="91"
         y="45"
         width="50"
         height="32"
         class="terminal"
         rx="10"/>
   <text class="terminal" x="101" y="65">~~~</text>
   <rect x="183" y="47" width="28" height="32" rx="10"/>
   <rect x="181"
         y="45"
         width="28"
         height="32"
         class="terminal"
         rx="10"/>
   <text class="terminal" x="191" y="65">{</text>
   <a xmlns:xlink="http://www.w3.org/1999/xlink"
      xlink:href="#name-value"
      xlink:title="name-value">
      <rect x="251" y="47" width="94" height="32"/>
      <rect x="249" y="45" width="94" height="32" class="nonterminal compound"/>
      <text class="nonterminal" x="259" y="65">name-value</text>
   </a>
   <rect x="251" y="3" width="24" height="32" rx="10"/>
   <rect x="249"
         y="1"
         width="24"
         height="32"
         class="terminal"
         rx="10"/>
   <text class="terminal" x="259" y="21">,</text>
   <rect x="385" y="47" width="28" height="32" rx="10"/>
   <rect x="383"
         y="45"
         width="28"
         height="32"
         class="terminal"
         rx="10"/>
   <text class="terminal" x="393" y="65">}</text>
   <a xmlns:xlink="http://www.w3.org/1999/xlink"
      xlink:href="#NL"
      xlink:title="NL">
      <rect x="453" y="47" width="36" height="32"/>
      <rect x="451" y="45" width="36" height="32" class="nonterminal"/>
      <text class="nonterminal" x="461" y="65">NL</text>
   </a>
   <a xmlns:xlink="http://www.w3.org/1999/xlink"
      xlink:href="#body"
      xlink:title="body">
      <rect x="509" y="47" width="50" height="32"/>
      <rect x="507" y="45" width="50" height="32" class="nonterminal"/>
      <text class="nonterminal" x="517" y="65">body</text>
   </a>
   <a xmlns:xlink="http://www.w3.org/1999/xlink"
      xlink:href="#TAB"
      xlink:title="TAB">
      <rect x="579" y="47" width="42" height="32"/>
      <rect x="577" y="45" width="42" height="32" class="nonterminal"/>
      <text class="nonterminal" x="587" y="65">TAB</text>
   </a>
   <rect x="641" y="47" width="50" height="32" rx="10"/>
   <rect x="639"
         y="45"
         width="50"
         height="32"
         class="terminal"
         rx="10"/>
   <text class="terminal" x="649" y="65">~~~</text>
   <path class="line"
         d="m17 61 h2 m0 0 h10 m42 0 h10 m0 0 h10 m50 0 h10 m20 0 h10 m28 0 h10 m20 0 h10 m94 0 h10 m-134 0 l20 0 m-1 0 q-9 0 -9 -10 l0 -24 q0 -10 10 -10 m114 44 l20 0 m-20 0 q10 0 10 -10 l0 -24 q0 -10 -10 -10 m-114 0 h10 m24 0 h10 m0 0 h70 m20 44 h10 m28 0 h10 m-270 0 h20 m250 0 h20 m-290 0 q10 0 10 10 m270 0 q0 -10 10 -10 m-280 10 v14 m270 0 v-14 m-270 14 q0 10 10 10 m250 0 q10 0 10 -10 m-260 10 h10 m0 0 h240 m20 -34 h10 m36 0 h10 m0 0 h10 m50 0 h10 m0 0 h10 m42 0 h10 m0 0 h10 m50 0 h10 m3 0 h-3"/>
   <polygon points="709 61 717 57 717 65"/>
   <polygon points="709 61 701 57 701 65"/>
</svg>
