<?xml version="1.0" encoding="UTF-8"?>
<svg xmlns="http://www.w3.org/2000/svg" width="533" height="69">
   <defs>
      <style type="text/css">
    @namespace "http://www.w3.org/2000/svg";
    .line                 {fill: none; stroke: #262626; stroke-width: 1;}
    .bold-line            {stroke: #0A0A0A; shape-rendering: crispEdges; stroke-width: 2;}
    .thin-line            {stroke: #0F0F0F; shape-rendering: crispEdges}
    .filled               {fill: #262626; stroke: none;}
    text.terminal         {font-family: Verdana, Sans-serif;
                            font-size: 12px;
                            fill: #0A0A0A;
                            font-weight: bold;
                          }
    text.nonterminal      {font-family: Verdana, Sans-serif;
                            font-size: 12px;
                            fill: #0D0D0D;
                            font-weight: normal;
                          }
    text.regexp           {font-family: Verdana, Sans-serif;
                            font-size: 12px;
                            fill: #0F0F0F;
                            font-weight: normal;
                          }
    rect, circle, polygon {fill: #262626; stroke: #262626;}
    rect.terminal         {fill: #FFFFFF; stroke: #262626; stroke-width: 1;}
    rect.nonterminal      {fill: #FFFFFF; stroke: #262626; stroke-width: 1;}
    rect.text             {fill: none; stroke: none;}
    polygon.regexp        {fill: #FFFFFF; stroke: #262626; stroke-width: 1;}
  </style>
   </defs>
   <polygon points="9 17 1 13 1 21"/>
   <polygon points="17 17 9 13 9 21"/>
   <a xmlns:xlink="http://www.w3.org/1999/xlink"
      xlink:href="#HTAB"
      xlink:title="HTAB">
      <rect x="31" y="3" width="52" height="32"/>
      <rect x="29" y="1" width="52" height="32" class="nonterminal"/>
      <text class="nonterminal" x="39" y="21">HTAB</text>
   </a>
   <rect x="103" y="3" width="50" height="32" rx="10"/>
   <rect x="101"
         y="1"
         width="50"
         height="32"
         class="terminal"
         rx="10"/>
   <text class="terminal" x="111" y="21">~~~</text>
   <a xmlns:xlink="http://www.w3.org/1999/xlink"
      xlink:href="#JSON-line"
      xlink:title="JSON-line">
      <rect x="193" y="35" width="80" height="32"/>
      <rect x="191" y="33" width="80" height="32" class="nonterminal"/>
      <text class="nonterminal" x="201" y="53">JSON-line</text>
   </a>
   <a xmlns:xlink="http://www.w3.org/1999/xlink"
      xlink:href="#body"
      xlink:title="body">
      <rect x="313" y="3" width="50" height="32"/>
      <rect x="311" y="1" width="50" height="32" class="nonterminal"/>
      <text class="nonterminal" x="321" y="21">body</text>
   </a>
   <a xmlns:xlink="http://www.w3.org/1999/xlink"
      xlink:href="#HTAB"
      xlink:title="HTAB">
      <rect x="383" y="3" width="52" height="32"/>
      <rect x="381" y="1" width="52" height="32" class="nonterminal"/>
      <text class="nonterminal" x="391" y="21">HTAB</text>
   </a>
   <rect x="455" y="3" width="50" height="32" rx="10"/>
   <rect x="453"
         y="1"
         width="50"
         height="32"
         class="terminal"
         rx="10"/>
   <text class="terminal" x="463" y="21">~~~</text>
   <path class="line"
         d="m17 17 h2 m0 0 h10 m52 0 h10 m0 0 h10 m50 0 h10 m20 0 h10 m0 0 h90 m-120 0 h20 m100 0 h20 m-140 0 q10 0 10 10 m120 0 q0 -10 10 -10 m-130 10 v12 m120 0 v-12 m-120 12 q0 10 10 10 m100 0 q10 0 10 -10 m-110 10 h10 m80 0 h10 m20 -32 h10 m50 0 h10 m0 0 h10 m52 0 h10 m0 0 h10 m50 0 h10 m3 0 h-3"/>
   <polygon points="523 17 531 13 531 21"/>
   <polygon points="523 17 515 13 515 21"/>
</svg>
