<?xml version="1.0" encoding="UTF-8"?>
<svg xmlns="http://www.w3.org/2000/svg" width="721" height="349">
   <defs>
      <style type="text/css">
    @namespace "http://www.w3.org/2000/svg";
    .line                 {fill: none; stroke: #262626; stroke-width: 1;}
    .bold-line            {stroke: #0A0A0A; shape-rendering: crispEdges; stroke-width: 2;}
    .thin-line            {stroke: #0F0F0F; shape-rendering: crispEdges}
    .filled               {fill: #262626; stroke: none;}
    text.terminal         {font-family: Verdana, Sans-serif;
                            font-size: 12px;
                            fill: #0A0A0A;
                            font-weight: bold;
                          }
    text.nonterminal      {font-family: Verdana, Sans-serif;
                            font-size: 12px;
                            fill: #0D0D0D;
                            font-weight: normal;
                          }
    text.regexp           {font-family: Verdana, Sans-serif;
                            font-size: 12px;
                            fill: #0F0F0F;
                            font-weight: normal;
                          }
    rect, circle, polygon {fill: #262626; stroke: #262626;}
    rect.terminal         {fill: #FFFFFF; stroke: #262626; stroke-width: 1;}
    rect.nonterminal      {fill: #FFFFFF; stroke: #262626; stroke-width: 1;}
    rect.text             {fill: none; stroke: none;}
    polygon.regexp        {fill: #FFFFFF; stroke: #262626; stroke-width: 1;}
  </style>
   </defs>
   <polygon points="9 33 1 29 1 37"/>
   <polygon points="17 33 9 29 9 37"/>
   <a xmlns:xlink="http://www.w3.org/1999/xlink"
      xlink:href="#participant"
      xlink:title="participant">
      <rect x="71" y="19" width="88" height="32"/>
      <rect x="69" y="17" width="88" height="32" class="nonterminal"/>
      <text class="nonterminal" x="79" y="37">participant</text>
   </a>
   <rect x="199" y="51" width="36" height="32" rx="10"/>
   <rect x="197"
         y="49"
         width="36"
         height="32"
         class="terminal"
         rx="10"/>
   <text class="terminal" x="207" y="69">-&gt;</text>
   <rect x="199" y="95" width="46" height="32" rx="10"/>
   <rect x="197"
         y="93"
         width="46"
         height="32"
         class="terminal"
         rx="10"/>
   <text class="terminal" x="207" y="113">-&gt;&gt;</text>
   <rect x="199" y="139" width="42" height="32" rx="10"/>
   <rect x="197"
         y="137"
         width="42"
         height="32"
         class="terminal"
         rx="10"/>
   <text class="terminal" x="207" y="157">--&gt;</text>
   <rect x="199" y="183" width="52" height="32" rx="10"/>
   <rect x="197"
         y="181"
         width="52"
         height="32"
         class="terminal"
         rx="10"/>
   <text class="terminal" x="207" y="201">--&gt;&gt;</text>
   <rect x="71" y="227" width="50" height="32" rx="10"/>
   <rect x="69"
         y="225"
         width="50"
         height="32"
         class="terminal"
         rx="10"/>
   <text class="terminal" x="79" y="245">note</text>
   <rect x="161" y="227" width="60" height="32" rx="10"/>
   <rect x="159"
         y="225"
         width="60"
         height="32"
         class="terminal"
         rx="10"/>
   <text class="terminal" x="169" y="245">left of</text>
   <rect x="161" y="271" width="70" height="32" rx="10"/>
   <rect x="159"
         y="269"
         width="70"
         height="32"
         class="terminal"
         rx="10"/>
   <text class="terminal" x="169" y="289">right of</text>
   <rect x="161" y="315" width="50" height="32" rx="10"/>
   <rect x="159"
         y="313"
         width="50"
         height="32"
         class="terminal"
         rx="10"/>
   <text class="terminal" x="169" y="333">over</text>
   <a xmlns:xlink="http://www.w3.org/1999/xlink"
      xlink:href="#participant"
      xlink:title="participant">
      <rect x="311" y="19" width="88" height="32"/>
      <rect x="309" y="17" width="88" height="32" class="nonterminal"/>
      <text class="nonterminal" x="319" y="37">participant</text>
   </a>
   <rect x="419" y="19" width="24" height="32" rx="10"/>
   <rect x="417"
         y="17"
         width="24"
         height="32"
         class="terminal"
         rx="10"/>
   <text class="terminal" x="427" y="37">:</text>
   <a xmlns:xlink="http://www.w3.org/1999/xlink"
      xlink:href="#message"
      xlink:title="message">
      <rect x="463" y="19" width="78" height="32"/>
      <rect x="461" y="17" width="78" height="32" class="nonterminal"/>
      <text class="nonterminal" x="471" y="37">message</text>
   </a>
   <a xmlns:xlink="http://www.w3.org/1999/xlink"
      xlink:href="#add-info"
      xlink:title="add-info">
      <rect x="581" y="51" width="72" height="32"/>
      <rect x="579" y="49" width="72" height="32" class="nonterminal"/>
      <text class="nonterminal" x="589" y="69">add-info</text>
   </a>
   <path class="line"
         d="m17 33 h2 m40 0 h10 m88 0 h10 m20 0 h10 m0 0 h62 m-92 0 h20 m72 0 h20 m-112 0 q10 0 10 10 m92 0 q0 -10 10 -10 m-102 10 v12 m92 0 v-12 m-92 12 q0 10 10 10 m72 0 q10 0 10 -10 m-82 10 h10 m36 0 h10 m0 0 h16 m-82 -10 v20 m92 0 v-20 m-92 20 v24 m92 0 v-24 m-92 24 q0 10 10 10 m72 0 q10 0 10 -10 m-82 10 h10 m46 0 h10 m0 0 h6 m-82 -10 v20 m92 0 v-20 m-92 20 v24 m92 0 v-24 m-92 24 q0 10 10 10 m72 0 q10 0 10 -10 m-82 10 h10 m42 0 h10 m0 0 h10 m-82 -10 v20 m92 0 v-20 m-92 20 v24 m92 0 v-24 m-92 24 q0 10 10 10 m72 0 q10 0 10 -10 m-82 10 h10 m52 0 h10 m-220 -164 h20 m220 0 h20 m-260 0 q10 0 10 10 m240 0 q0 -10 10 -10 m-250 10 v188 m240 0 v-188 m-240 188 q0 10 10 10 m220 0 q10 0 10 -10 m-230 10 h10 m50 0 h10 m20 0 h10 m60 0 h10 m0 0 h10 m-110 0 h20 m90 0 h20 m-130 0 q10 0 10 10 m110 0 q0 -10 10 -10 m-120 10 v24 m110 0 v-24 m-110 24 q0 10 10 10 m90 0 q10 0 10 -10 m-100 10 h10 m70 0 h10 m-100 -10 v20 m110 0 v-20 m-110 20 v24 m110 0 v-24 m-110 24 q0 10 10 10 m90 0 q10 0 10 -10 m-100 10 h10 m50 0 h10 m0 0 h20 m20 -88 h20 m20 -208 h10 m88 0 h10 m0 0 h10 m24 0 h10 m0 0 h10 m78 0 h10 m20 0 h10 m0 0 h82 m-112 0 h20 m92 0 h20 m-132 0 q10 0 10 10 m112 0 q0 -10 10 -10 m-122 10 v12 m112 0 v-12 m-112 12 q0 10 10 10 m92 0 q10 0 10 -10 m-102 10 h10 m72 0 h10 m-642 -32 l20 0 m-1 0 q-9 0 -9 -10 l0 -12 q0 -10 10 -10 m642 32 l20 0 m-20 0 q10 0 10 -10 l0 -12 q0 -10 -10 -10 m-642 0 h10 m0 0 h632 m23 32 h-3"/>
   <polygon points="711 33 719 29 719 37"/>
   <polygon points="711 33 703 29 703 37"/>
</svg>
