<?xml version="1.0" encoding="UTF-8"?>
<svg xmlns="http://www.w3.org/2000/svg" width="425" height="257">
   <defs>
      <style type="text/css">
    @namespace "http://www.w3.org/2000/svg";
    .line                 {fill: none; stroke: #262626; stroke-width: 1;}
    .bold-line            {stroke: #0A0A0A; shape-rendering: crispEdges; stroke-width: 2;}
    .thin-line            {stroke: #0F0F0F; shape-rendering: crispEdges}
    .filled               {fill: #262626; stroke: none;}
    text.terminal         {font-family: Verdana, Sans-serif;
                            font-size: 12px;
                            fill: #0A0A0A;
                            font-weight: bold;
                          }
    text.nonterminal      {font-family: Verdana, Sans-serif;
                            font-size: 12px;
                            fill: #0D0D0D;
                            font-weight: normal;
                          }
    text.regexp           {font-family: Verdana, Sans-serif;
                            font-size: 12px;
                            fill: #0F0F0F;
                            font-weight: normal;
                          }
    rect, circle, polygon {fill: #262626; stroke: #262626;}
    rect.terminal         {fill: #FFFFFF; stroke: #262626; stroke-width: 1;}
    rect.nonterminal      {fill: #FFFFFF; stroke: #262626; stroke-width: 1;}
    rect.text             {fill: none; stroke: none;}
    polygon.regexp        {fill: #FFFFFF; stroke: #262626; stroke-width: 1;}
  </style>
   </defs>
   <polygon points="9 17 1 13 1 21"/>
   <polygon points="17 17 9 13 9 21"/>
   <rect x="71" y="3" width="106" height="32" rx="10"/>
   <rect x="69"
         y="1"
         width="106"
         height="32"
         class="terminal"
         rx="10"/>
   <text class="terminal" x="79" y="21">"timestamp"</text>
   <rect x="71" y="47" width="128" height="32" rx="10"/>
   <rect x="69"
         y="45"
         width="128"
         height="32"
         class="terminal"
         rx="10"/>
   <text class="terminal" x="79" y="65">"srcInstanceId"</text>
   <rect x="71" y="91" width="128" height="32" rx="10"/>
   <rect x="69"
         y="89"
         width="128"
         height="32"
         class="terminal"
         rx="10"/>
   <text class="terminal" x="79" y="109">"dstInstanceId"</text>
   <rect x="239" y="3" width="24" height="32" rx="10"/>
   <rect x="237"
         y="1"
         width="24"
         height="32"
         class="terminal"
         rx="10"/>
   <text class="terminal" x="247" y="21">:</text>
   <a xmlns:xlink="http://www.w3.org/1999/xlink"
      xlink:href="#JSON-string"
      xlink:title="JSON-string">
      <rect x="283" y="3" width="94" height="32"/>
      <rect x="281" y="1" width="94" height="32" class="nonterminal"/>
      <text class="nonterminal" x="291" y="21">JSON-string</text>
   </a>
   <rect x="51" y="135" width="60" height="32" rx="10"/>
   <rect x="49"
         y="133"
         width="60"
         height="32"
         class="terminal"
         rx="10"/>
   <text class="terminal" x="59" y="153">"size"</text>
   <rect x="131" y="135" width="24" height="32" rx="10"/>
   <rect x="129"
         y="133"
         width="24"
         height="32"
         class="terminal"
         rx="10"/>
   <text class="terminal" x="139" y="153">:</text>
   <a xmlns:xlink="http://www.w3.org/1999/xlink"
      xlink:href="#JSON-integer"
      xlink:title="JSON-integer">
      <rect x="175" y="135" width="102" height="32"/>
      <rect x="173" y="133" width="102" height="32" class="nonterminal"/>
      <text class="nonterminal" x="183" y="153">JSON-integer</text>
   </a>
   <rect x="51" y="179" width="94" height="32" rx="10"/>
   <rect x="49"
         y="177"
         width="94"
         height="32"
         class="terminal"
         rx="10"/>
   <text class="terminal" x="59" y="197">"isSpecial"</text>
   <rect x="165" y="179" width="24" height="32" rx="10"/>
   <rect x="163"
         y="177"
         width="24"
         height="32"
         class="terminal"
         rx="10"/>
   <text class="terminal" x="173" y="197">:</text>
   <rect x="209" y="179" width="48" height="32" rx="10"/>
   <rect x="207"
         y="177"
         width="48"
         height="32"
         class="terminal"
         rx="10"/>
   <text class="terminal" x="217" y="197">true</text>
   <a xmlns:xlink="http://www.w3.org/1999/xlink"
      xlink:href="#JSON-string"
      xlink:title="JSON-string">
      <rect x="51" y="223" width="94" height="32"/>
      <rect x="49" y="221" width="94" height="32" class="nonterminal"/>
      <text class="nonterminal" x="59" y="241">JSON-string</text>
   </a>
   <rect x="165" y="223" width="24" height="32" rx="10"/>
   <rect x="163"
         y="221"
         width="24"
         height="32"
         class="terminal"
         rx="10"/>
   <text class="terminal" x="173" y="241">:</text>
   <a xmlns:xlink="http://www.w3.org/1999/xlink"
      xlink:href="#JSON-value"
      xlink:title="JSON-value">
      <rect x="209" y="223" width="92" height="32"/>
      <rect x="207" y="221" width="92" height="32" class="nonterminal"/>
      <text class="nonterminal" x="217" y="241">JSON-value</text>
   </a>
   <path class="line"
         d="m17 17 h2 m40 0 h10 m106 0 h10 m0 0 h22 m-168 0 h20 m148 0 h20 m-188 0 q10 0 10 10 m168 0 q0 -10 10 -10 m-178 10 v24 m168 0 v-24 m-168 24 q0 10 10 10 m148 0 q10 0 10 -10 m-158 10 h10 m128 0 h10 m-158 -10 v20 m168 0 v-20 m-168 20 v24 m168 0 v-24 m-168 24 q0 10 10 10 m148 0 q10 0 10 -10 m-158 10 h10 m128 0 h10 m20 -88 h10 m24 0 h10 m0 0 h10 m94 0 h10 m-366 0 h20 m346 0 h20 m-386 0 q10 0 10 10 m366 0 q0 -10 10 -10 m-376 10 v112 m366 0 v-112 m-366 112 q0 10 10 10 m346 0 q10 0 10 -10 m-356 10 h10 m60 0 h10 m0 0 h10 m24 0 h10 m0 0 h10 m102 0 h10 m0 0 h100 m-356 -10 v20 m366 0 v-20 m-366 20 v24 m366 0 v-24 m-366 24 q0 10 10 10 m346 0 q10 0 10 -10 m-356 10 h10 m94 0 h10 m0 0 h10 m24 0 h10 m0 0 h10 m48 0 h10 m0 0 h120 m-356 -10 v20 m366 0 v-20 m-366 20 v24 m366 0 v-24 m-366 24 q0 10 10 10 m346 0 q10 0 10 -10 m-356 10 h10 m94 0 h10 m0 0 h10 m24 0 h10 m0 0 h10 m92 0 h10 m0 0 h76 m23 -220 h-3"/>
   <polygon points="415 17 423 13 423 21"/>
   <polygon points="415 17 407 13 407 21"/>
</svg>
